<svg width="88" height="94" viewBox="0 0 88 94" fill="none" xmlns="http://www.w3.org/2000/svg">
<path d="M42.793 52.2397C42.5998 52.2949 42.4128 52.3654 42.2319 52.4512H42.842C42.8298 52.3776 42.8083 52.3102 42.793 52.2397ZM45.4788 52.4175C45.4114 52.3899 45.3439 52.3592 45.2703 52.3347C45.2673 52.3286 45.2611 52.3286 45.255 52.3286C45.1661 52.2949 45.0772 52.2673 44.9882 52.2397C44.9729 52.3102 44.9515 52.3776 44.9392 52.4512H45.5493C45.5279 52.439 45.5033 52.4298 45.4788 52.4175ZM49.9798 58.3748C49.9828 58.3932 49.9859 58.4147 49.9889 58.4331C49.992 58.4208 49.9951 58.4024 50.0012 58.3901C49.992 58.384 49.9859 58.3809 49.9798 58.3748ZM37.7371 23.2074C38.5802 21.38 36.5536 20.0831 34.9132 20.2241C35.8239 21.2236 35.4559 24.5625 37.4458 23.5078C36.9184 23.0847 36.4647 22.2845 36.3543 21.4689C36.6272 22.1005 37.0809 22.9835 37.7371 23.2074ZM41.1158 15.8857C41.1189 17.9246 38.0437 19.571 40.2604 20.8956C40.1255 19.9972 40.4996 19.2154 41.1772 18.5163C40.7724 19.5066 40.5885 20.3345 40.8552 20.9324C42.7623 20.3069 43.0045 17.4187 41.1158 15.8857ZM41.0484 24.7434C41.3918 25.5989 41.818 26.1477 42.3085 26.393C42.0173 24.7956 42.6581 23.9984 39.5614 23.0111C40.6529 24.2314 39.9078 26.9357 41.8885 26.626C41.2937 26.1201 41.0698 25.5529 41.0484 24.7434ZM30.9795 34.4996C30.9856 34.5394 30.9948 34.5793 31.001 34.6191H31.004L31.0654 34.5425L30.9795 34.4996ZM48.6215 18.1055C48.229 19.6967 45.5739 20.6104 46.9505 22.0668C47.0364 21.2941 47.3767 20.7852 48.0298 20.3099C47.5177 21.0734 47.3092 21.7357 47.3798 22.2845C48.5326 21.1347 49.5566 21.2175 48.6215 18.1055ZM50.6819 10.143C47.5944 10.6489 45.1231 14.2883 47.2356 16.9772C48.3118 16.0666 48.6368 14.7543 48.7503 13.396C49.1826 15.0486 48.9833 16.3609 48.2566 17.48C51.8715 17.3727 49.063 12.9637 50.6819 10.143ZM49.3972 24.6515C49.4892 24.7128 49.5781 24.768 49.6609 24.817H49.6639C49.8356 24.5012 50.2005 24.2099 50.734 23.8788C50.1177 24.0597 49.6946 24.2774 49.3972 24.6515ZM52.3283 16.4682C52.3559 18.2005 50.0625 19.6262 51.6262 20.6472C51.5588 19.8807 51.847 19.3196 52.4786 18.639C52.0831 19.5588 51.9481 20.1812 52.2272 20.7085C53.9963 20.4541 53.8859 17.8265 52.3283 16.4682ZM57.5191 21.1776C56.2314 22.6555 52.7729 21.8338 53.4474 24.2437C53.9503 23.6857 54.7996 23.2012 55.6948 23.0908C54.6769 23.4557 54.0423 24.0229 53.9288 24.5687C55.4588 25.3352 57.6878 24.0413 57.5191 21.1776ZM57.1083 30.5965C57.7031 30.5382 58.1875 30.667 58.7731 30.9368C58.0312 30.8265 57.513 30.7099 57.142 30.897C57.5406 32.059 59.4231 31.7831 60.2816 30.4493C59.2606 30.6916 57.7062 29.2965 57.1083 30.5965ZM55.9677 26.2765C57.0868 27.1349 58.4359 27.1779 59.7911 27.0031C58.2673 27.7727 56.9366 27.8524 55.6887 27.3802C56.5564 30.8878 60.2786 27.2177 63.3845 28.2111C62.2378 25.3015 58.1599 23.6458 55.9677 26.2765ZM60.7753 30.0324C61.3364 30.6333 62.109 30.7805 62.9031 30.8111C61.9802 31.0319 61.2444 30.8265 60.5729 30.4371C60.6128 32.8654 63.1637 30.9828 64.8531 31.8444C64.4729 30.0661 62.2838 28.7262 60.7753 30.0324ZM42.793 52.2397C42.5998 52.2949 42.4128 52.3654 42.2319 52.4512H42.842C42.8298 52.3776 42.8083 52.3102 42.793 52.2397ZM42.793 52.2397C42.5998 52.2949 42.4128 52.3654 42.2319 52.4512H42.842C42.8298 52.3776 42.8083 52.3102 42.793 52.2397ZM42.793 52.2397C42.5998 52.2949 42.4128 52.3654 42.2319 52.4512H42.842C42.8298 52.3776 42.8083 52.3102 42.793 52.2397ZM42.793 52.2397C42.5998 52.2949 42.4128 52.3654 42.2319 52.4512H42.842C42.8298 52.3776 42.8083 52.3102 42.793 52.2397ZM42.793 52.2397C42.5998 52.2949 42.4128 52.3654 42.2319 52.4512H42.842C42.8298 52.3776 42.8083 52.3102 42.793 52.2397ZM42.793 52.2397C42.5998 52.2949 42.4128 52.3654 42.2319 52.4512H42.842C42.8298 52.3776 42.8083 52.3102 42.793 52.2397ZM42.793 52.2397C42.5998 52.2949 42.4128 52.3654 42.2319 52.4512H42.842C42.8298 52.3776 42.8083 52.3102 42.793 52.2397ZM42.793 52.2397C42.5998 52.2949 42.4128 52.3654 42.2319 52.4512H42.842C42.8298 52.3776 42.8083 52.3102 42.793 52.2397ZM42.793 52.2397C42.5998 52.2949 42.4128 52.3654 42.2319 52.4512H42.842C42.8298 52.3776 42.8083 52.3102 42.793 52.2397ZM42.793 52.2397C42.5998 52.2949 42.4128 52.3654 42.2319 52.4512H42.842C42.8298 52.3776 42.8083 52.3102 42.793 52.2397ZM42.793 52.2397C42.5998 52.2949 42.4128 52.3654 42.2319 52.4512H42.842C42.8298 52.3776 42.8083 52.3102 42.793 52.2397ZM42.793 52.2397C42.5998 52.2949 42.4128 52.3654 42.2319 52.4512H42.842C42.8298 52.3776 42.8083 52.3102 42.793 52.2397ZM42.793 52.2397C42.5998 52.2949 42.4128 52.3654 42.2319 52.4512H42.842C42.8298 52.3776 42.8083 52.3102 42.793 52.2397ZM42.793 52.2397C42.5998 52.2949 42.4128 52.3654 42.2319 52.4512H42.842C42.8298 52.3776 42.8083 52.3102 42.793 52.2397ZM42.793 52.2397C42.5998 52.2949 42.4128 52.3654 42.2319 52.4512H42.842C42.8298 52.3776 42.8083 52.3102 42.793 52.2397ZM42.793 52.2397C42.5998 52.2949 42.4128 52.3654 42.2319 52.4512H42.842C42.8298 52.3776 42.8083 52.3102 42.793 52.2397ZM42.793 52.2397C42.5998 52.2949 42.4128 52.3654 42.2319 52.4512H42.842C42.8298 52.3776 42.8083 52.3102 42.793 52.2397ZM42.793 52.2397C42.5998 52.2949 42.4128 52.3654 42.2319 52.4512H42.842C42.8298 52.3776 42.8083 52.3102 42.793 52.2397ZM42.793 52.2397C42.5998 52.2949 42.4128 52.3654 42.2319 52.4512H42.842C42.8298 52.3776 42.8083 52.3102 42.793 52.2397ZM42.793 52.2397C42.5998 52.2949 42.4128 52.3654 42.2319 52.4512H42.842C42.8298 52.3776 42.8083 52.3102 42.793 52.2397ZM42.793 52.2397C42.5998 52.2949 42.4128 52.3654 42.2319 52.4512H42.842C42.8298 52.3776 42.8083 52.3102 42.793 52.2397ZM42.793 52.2397C42.5998 52.2949 42.4128 52.3654 42.2319 52.4512H42.842C42.8298 52.3776 42.8083 52.3102 42.793 52.2397ZM42.793 52.2397C42.5998 52.2949 42.4128 52.3654 42.2319 52.4512H42.842C42.8298 52.3776 42.8083 52.3102 42.793 52.2397ZM42.793 52.2397C42.5998 52.2949 42.4128 52.3654 42.2319 52.4512H42.842C42.8298 52.3776 42.8083 52.3102 42.793 52.2397ZM42.793 52.2397C42.5998 52.2949 42.4128 52.3654 42.2319 52.4512H42.842C42.8298 52.3776 42.8083 52.3102 42.793 52.2397ZM42.793 52.2397C42.5998 52.2949 42.4128 52.3654 42.2319 52.4512H42.842C42.8298 52.3776 42.8083 52.3102 42.793 52.2397ZM42.793 52.2397C42.5998 52.2949 42.4128 52.3654 42.2319 52.4512H42.842C42.8298 52.3776 42.8083 52.3102 42.793 52.2397ZM42.793 52.2397C42.5998 52.2949 42.4128 52.3654 42.2319 52.4512H42.842C42.8298 52.3776 42.8083 52.3102 42.793 52.2397ZM42.793 52.2397C42.5998 52.2949 42.4128 52.3654 42.2319 52.4512H42.842C42.8298 52.3776 42.8083 52.3102 42.793 52.2397ZM42.793 52.2397C42.5998 52.2949 42.4128 52.3654 42.2319 52.4512H42.842C42.8298 52.3776 42.8083 52.3102 42.793 52.2397ZM42.793 52.2397C42.5998 52.2949 42.4128 52.3654 42.2319 52.4512H42.842C42.8298 52.3776 42.8083 52.3102 42.793 52.2397ZM42.793 52.2397C42.5998 52.2949 42.4128 52.3654 42.2319 52.4512H42.842C42.8298 52.3776 42.8083 52.3102 42.793 52.2397ZM42.793 52.2397C42.5998 52.2949 42.4128 52.3654 42.2319 52.4512H42.842C42.8298 52.3776 42.8083 52.3102 42.793 52.2397ZM42.793 52.2397C42.5998 52.2949 42.4128 52.3654 42.2319 52.4512H42.842C42.8298 52.3776 42.8083 52.3102 42.793 52.2397ZM42.793 52.2397C42.5998 52.2949 42.4128 52.3654 42.2319 52.4512H42.842C42.8298 52.3776 42.8083 52.3102 42.793 52.2397ZM42.793 52.2397C42.5998 52.2949 42.4128 52.3654 42.2319 52.4512H42.842C42.8298 52.3776 42.8083 52.3102 42.793 52.2397ZM42.793 52.2397C42.5998 52.2949 42.4128 52.3654 42.2319 52.4512H42.842C42.8298 52.3776 42.8083 52.3102 42.793 52.2397ZM42.793 52.2397C42.5998 52.2949 42.4128 52.3654 42.2319 52.4512H42.842C42.8298 52.3776 42.8083 52.3102 42.793 52.2397ZM42.793 52.2397C42.5998 52.2949 42.4128 52.3654 42.2319 52.4512H42.842C42.8298 52.3776 42.8083 52.3102 42.793 52.2397ZM42.793 52.2397C42.5998 52.2949 42.4128 52.3654 42.2319 52.4512H42.842C42.8298 52.3776 42.8083 52.3102 42.793 52.2397ZM42.793 52.2397C42.5998 52.2949 42.4128 52.3654 42.2319 52.4512H42.842C42.8298 52.3776 42.8083 52.3102 42.793 52.2397ZM40.6314 60.4413C40.5823 60.5088 40.5394 60.5701 40.4934 60.6345C40.5425 60.6467 40.5915 60.6621 40.6437 60.6743C40.6406 60.5977 40.6345 60.521 40.6314 60.4413ZM42.793 52.2397C42.5998 52.2949 42.4128 52.3654 42.2319 52.4512H42.842C42.8298 52.3776 42.8083 52.3102 42.793 52.2397ZM42.793 52.2397C42.5998 52.2949 42.4128 52.3654 42.2319 52.4512H42.842C42.8298 52.3776 42.8083 52.3102 42.793 52.2397ZM17.771 26.1508C17.7772 24.5074 15.5849 23.3361 12.9941 24.4C14.4965 24.9581 15.8731 28.6005 17.4767 26.8713C16.839 26.7088 15.8149 25.9791 15.447 25.2708C16.0694 25.8595 17.2314 26.2826 17.771 26.1508ZM18.9545 9.16797C18.9852 10.9003 16.6887 12.326 18.2555 13.3439C18.1849 12.5805 18.4731 12.0194 19.1078 11.3387C18.7092 12.2555 18.5774 12.8809 18.8533 13.4052C20.6224 13.1508 20.5151 10.5262 18.9545 9.16797ZM22.925 11.1578C22.9158 11.1701 22.9066 11.1885 22.8974 11.2038C22.9097 11.2099 22.9189 11.2191 22.9312 11.2253C22.9281 11.2008 22.9281 11.1793 22.925 11.1578ZM19.1201 23.3576C18.4272 25.3229 19.7456 27.3097 21.1713 26.8927C21.1713 26.4512 20.7298 25.6173 20.1564 25.2463C20.7727 25.3965 21.5239 26.0496 21.7722 26.5064C22.5173 24.6361 19.8927 24.7986 19.1201 23.3576ZM23.7406 22.496C24.6972 22.9866 25.5526 23.0633 26.0248 22.775C25.5434 21.1286 23.0753 20.3897 21.0946 22.4715C23.0538 22.401 24.8168 25.4824 26.1198 23.3453C25.3687 23.3576 24.4305 23.0694 23.7406 22.496ZM30.0106 29.6154L29.9739 30.0722C30.0413 29.925 30.0996 29.7687 30.1548 29.5878C30.1057 29.6 30.0597 29.6092 30.0106 29.6154Z" fill="#03302D"/>
<path d="M44.2925 14.2847C44.2434 14.1989 44.2005 14.1038 44.1698 14.0027C44.0165 13.5489 44.0135 12.9479 44.1698 12.209C43.7344 12.8928 43.6087 13.4876 43.8142 14.2418C43.4585 14.0793 43.2561 13.877 43.155 13.6439C43.155 13.6439 43.1519 13.6439 43.155 13.6409C43.017 13.3281 43.0722 12.9602 43.1979 12.5647C43.4585 11.7583 44.0227 10.8201 43.9031 9.94629C44.2986 10.443 44.5776 10.8569 44.7677 11.2064C45.5495 12.6567 44.8137 13.0859 44.2925 14.2847Z" fill="#2EAC53"/>
<mask id="mask0_969_777" style="mask-type:luminance" maskUnits="userSpaceOnUse" x="3" y="0" width="68" height="41">
<path d="M3.69727 0.000244141H70.3836V40.0304H3.69727V0.000244141Z" fill="white"/>
</mask>
<g mask="url(#mask0_969_777)">
<path d="M69.1905 24.8079C67.4552 25.4978 65.0637 26.8376 63.5276 26.1202C61.9884 25.3997 62.8714 24.6791 62.1816 23.8299C61.4917 22.9775 58.6096 21.6346 58.2172 20.3928C57.8278 19.1511 57.5304 18.6605 56.8099 18.1362C56.0894 17.6119 56.0556 16.8883 55.9912 15.9103C55.9269 14.9291 53.9953 13.8806 53.8297 13.065C53.6672 12.2464 50.1964 8.12254 50.6196 7.69943C51.0457 7.27325 52.1924 9.43174 52.6186 8.32183C53.0448 7.20886 52.1924 5.47655 51.5363 5.66971C50.8863 5.869 50.6563 5.89966 49.7365 5.47655C48.8198 5.05037 47.8049 6.39329 46.9188 6.12962C46.6276 6.04683 46.0726 5.96712 45.4318 5.86287C45.3828 5.85674 45.3337 5.84754 45.2816 5.83834C45.2754 5.83528 45.2693 5.82914 45.2693 5.82914L44.65 5.7249L44.6316 5.73103C44.6316 5.73103 44.6316 5.73103 44.6316 5.7249C43.4971 5.51334 42.3045 5.20367 41.8047 4.65485C40.8879 3.63999 38.9563 4.55674 39.0207 5.60226C39.0882 6.65084 38.6927 7.14141 38.0365 6.81334C37.5 6.5466 36.0405 6.47301 35.3323 5.91806V5.90273L34.903 5.26499L34.8938 5.26806C34.8938 5.26806 34.8938 5.26193 34.8938 5.25886C34.4247 4.50768 33.1953 4.60579 32.3797 4.45556C31.4967 4.28999 30.4481 3.47443 31.1379 2.82136C31.3096 2.65579 31.4446 2.49023 31.5396 2.32773C31.5396 2.32773 31.5396 2.32466 31.5427 2.32466C31.8217 1.83716 31.7389 1.35579 31.1993 0.889757C31.1104 0.813106 31.046 0.739521 30.9969 0.669002C30.9938 0.669002 30.9938 0.669002 30.9938 0.669002C30.6321 0.17537 31.0674 -0.11897 30.12 0.0465967C29.0377 0.236691 26.2905 0.270417 24.3221 0.595417C22.3568 0.923483 21.1457 2.10084 19.999 1.8065C18.8523 1.51216 18.1318 2.10391 17.6382 1.34966C17.1507 0.595417 16.6908 1.25155 16.2646 1.77584C15.8384 2.30013 15.6729 2.95013 13.7413 3.70438C11.8096 4.45863 13.4806 6.22466 12.0059 7.20273C10.5311 8.18386 9.67568 8.02443 8.69762 9.33056C7.71342 10.6398 7.38535 10.3148 6.56672 11.8508C5.74809 13.39 4.73323 13.6537 4.79762 14.8954C4.86507 16.1372 5.51201 18.1332 4.79455 19.5742C4.0771 21.0122 3.42097 21.6008 3.81649 22.3183C4.20894 23.0419 3.71837 24.4799 4.60139 24.9367C5.48441 25.3966 6.17734 26.1815 6.3705 26.7365C6.56672 27.2945 6.487 28.1192 7.32097 28.8306C8.00776 29.4223 9.51318 30.3697 10.6936 31.449C11.874 32.5282 12.5302 32.89 14.3299 32.2339C16.1297 31.5808 17.442 32.5957 18.2269 32.2676C19.0148 31.9395 20.8146 30.7284 22.7799 30.6978C24.7453 30.664 24.8434 30.8909 25.2726 31.7402C25.7019 32.5895 26.1587 32.8501 27.1736 32.5589C27.9002 32.3442 29.0346 32.5221 29.4854 33.2334C29.4946 33.2273 29.5038 33.2211 29.5129 33.215L29.4946 33.2334L29.6785 33.8037C29.6785 33.8037 29.6693 33.8098 29.6632 33.8129C29.6785 33.9692 29.6693 34.1409 29.6233 34.328C29.3719 35.444 28.9059 36.4957 28.7832 37.2836L28.7464 37.3235C28.7464 37.3235 28.7004 37.6577 28.7802 37.9275H28.3141C27.5016 37.9275 26.8424 38.5683 26.8424 39.3532H63.8464C63.8464 38.9607 63.6839 38.6051 63.4141 38.3445C63.1504 38.09 62.7825 37.9275 62.3747 37.9275H61.9884C63.3865 36.4895 65.3028 34.5426 66.4771 33.6749C68.1144 32.4638 69.6719 28.5362 70.0122 27.1626C70.3587 25.786 70.929 24.1211 69.1905 24.8079ZM63.3804 28.2112C60.2776 27.2178 56.5554 30.8879 55.6877 27.3803C56.9356 27.8525 58.2663 27.7728 59.7901 27.0032C58.4349 27.178 57.0858 27.135 55.9667 26.2766C58.1589 23.6459 62.2368 25.3015 63.3804 28.2112ZM57.5181 21.1777C57.6868 24.0414 55.4578 25.3353 53.9278 24.5688C54.0382 24.023 54.6759 23.4558 55.6938 23.0909C54.7986 23.2013 53.9462 23.6857 53.4464 24.2438C52.7719 21.8339 56.2304 22.6556 57.5181 21.1777ZM52.3273 16.4683C53.8849 17.8265 53.9953 20.4541 52.2262 20.7086C51.9471 20.1813 52.0821 19.5589 52.4776 18.639C51.846 19.3197 51.5578 19.8808 51.6252 20.6473C50.0615 19.6263 52.3549 18.2006 52.3273 16.4683ZM49.6599 24.8171C49.5771 24.7681 49.4882 24.7129 49.3931 24.6516C49.3042 24.765 49.2245 24.8907 49.1571 25.0348C49.0283 24.7773 48.9854 24.5626 49.0037 24.3787C49.1049 23.3485 51.1714 23.2657 51.7479 21.981C52.2599 23.4159 51.5026 25.0716 50.4325 25.3905C50.1535 25.4732 49.853 25.4641 49.5434 25.3353C49.5311 25.1513 49.571 24.9796 49.6629 24.8171H49.6599ZM50.6809 10.1431C49.062 12.9638 51.8705 17.3728 48.2556 17.4801C48.9823 16.361 49.1816 15.0487 48.7493 13.3961C48.6358 14.7544 48.3108 16.0666 47.2346 16.9773C45.1221 14.2883 47.5934 10.649 50.6809 10.1431ZM46.9495 22.0669C45.5729 20.6105 48.228 19.6968 48.6205 18.1056C49.5556 21.2176 48.5316 21.1348 47.3787 22.2846C47.3082 21.7357 47.5167 21.0735 48.0257 20.31C47.3757 20.7853 47.0354 21.2942 46.9495 22.0669ZM45.4196 23.3975C45.5453 23.1982 45.6526 22.9928 45.7292 22.7843C45.7875 22.631 45.8273 22.4747 45.8457 22.3152C46.0971 22.8763 46.2658 23.3332 46.3639 23.7133H46.367V23.7164C46.4835 24.1732 46.5049 24.5197 46.4559 24.8049C46.3302 25.5376 45.7384 25.8688 45.162 26.6169C45.021 26.0865 45.1467 25.3997 45.5483 24.5749C44.9596 25.1329 44.6898 25.6787 44.7082 26.4605C43.5186 25.4916 44.7144 24.5289 45.4196 23.3975ZM43.1967 12.5652C43.4573 11.7589 44.0214 10.8207 43.9019 9.94683C44.2974 10.4435 44.5764 10.8544 44.7665 11.207C45.5483 12.6572 44.8125 13.0865 44.2912 14.2853C44.2422 14.1994 44.1993 14.1044 44.1686 14.0032C44.0153 13.5494 44.0122 12.9485 44.1686 12.2096C43.7332 12.8933 43.6075 13.4881 43.8129 14.2424C43.4573 14.0799 43.2549 13.8775 43.1538 13.6445C43.1538 13.6445 43.1507 13.6445 43.1538 13.6414C43.0158 13.3287 43.071 12.9607 43.1967 12.5652ZM40.8542 20.9324C40.5875 20.3346 40.7684 19.5067 41.1731 18.5164C40.4955 19.2155 40.1214 19.9973 40.2594 20.8957C38.0427 19.5711 41.1179 17.9247 41.1118 15.8857C43.0035 17.4188 42.7613 20.307 40.8542 20.9324ZM41.8875 26.6261C39.9068 26.9357 40.6519 24.2315 39.5604 23.0112C42.6571 23.9985 42.0132 24.7957 42.3075 26.3931C41.817 26.1478 41.3908 25.599 41.0474 24.7435C41.0688 25.553 41.2927 26.1202 41.8875 26.6261ZM38.4995 8.08575C38.5271 7.88339 38.5363 7.68103 38.5271 7.47867C38.7203 7.62584 38.9012 7.78221 39.0729 7.95391C41.728 10.5907 41.6177 15.8888 38.2389 17.1214C37.6993 15.9961 37.9905 14.411 38.6988 12.4886C37.454 13.8683 36.7887 15.3829 37.1045 17.0907C32.9561 15.0242 38.0764 11.7282 38.4995 8.08575ZM37.4448 23.5079C35.4549 24.5626 35.8198 21.2237 34.9092 20.2242C36.5526 20.0832 38.5792 21.3801 37.7361 23.2074C37.0799 22.9836 36.6262 22.1006 36.3533 21.469C36.4637 22.2846 36.9174 23.0848 37.4448 23.5079ZM32.5882 6.77042C32.7476 7.25179 33.1002 7.65037 33.5111 8.00603C33.6582 8.13174 33.8115 8.25438 33.9648 8.37396C35.0441 9.20792 36.1632 9.90084 35.1545 11.1702C34.9061 10.4619 34.3082 9.68622 33.5325 9.23858C34.3266 9.96523 34.6976 10.7409 34.5872 11.2806C33.7809 11.3388 33.0113 10.9126 32.5545 10.1768C32.4379 9.99282 32.3429 9.79047 32.2724 9.56971V9.56664C32.024 8.79707 32.07 7.8282 32.5882 6.77042ZM32.2448 26.2428C31.2146 27.7973 29.7828 26.0159 28.449 25.0501C28.0964 24.7926 27.75 24.5933 27.4188 24.532C27.7898 24.302 28.1578 24.1303 28.5196 24.0046C30.4849 23.3301 32.1957 24.1119 32.4196 25.4794C31.9075 25.7001 30.6934 25.4702 29.9851 24.9888C30.4634 25.6327 31.5887 26.1815 32.2448 26.2428ZM28.8844 18.6912C28.5809 18.6482 28.2651 18.6207 27.937 18.6084C28.2559 18.728 28.5655 18.8567 28.866 18.9978C30.0802 19.5773 31.1134 20.3806 31.7082 21.6744C30.6351 22.1159 29.6019 22.1343 28.6667 21.8492C26.1311 21.0765 24.3467 18.0565 24.6287 15.1376C25.7754 16.3119 27.4587 16.7197 28.9948 17.0692C31.2943 17.5966 33.2627 17.9952 32.5974 20.6381C31.6684 19.5834 30.4389 18.9242 28.8844 18.6912ZM26.1188 23.3454C24.8158 25.4824 23.0528 22.4011 21.0936 22.4716C23.0743 20.3898 25.5424 21.1287 26.0238 22.7751C25.5516 23.0633 24.6962 22.9867 23.7396 22.4961C24.4295 23.0695 25.3677 23.3577 26.1188 23.3454ZM28.5594 10.9464C28.8108 11.2376 29.0868 11.4921 29.3627 11.719C29.8717 12.136 30.4021 12.4671 30.8589 12.786C31.0674 12.9301 31.2606 13.0711 31.4323 13.2152C32.0823 13.764 32.4073 14.3589 31.9566 15.3492C31.9075 15.4596 31.8493 15.5699 31.7818 15.6895C31.7787 15.1898 31.4967 14.6839 30.9754 14.224C30.6842 13.9633 30.3132 13.7181 29.8747 13.4942C30.7608 14.3343 31.1042 15.2449 31.1104 15.99C30.3162 16.0728 29.6325 15.7416 29.1266 15.1836C28.1884 14.1473 27.8604 12.3322 28.5594 10.9464ZM21.7344 12.9546C21.7927 13.0067 21.8509 13.0589 21.903 13.114C23.2981 14.5091 23.3318 16.9466 21.6332 17.1919C21.3542 16.6676 21.4861 16.0421 21.8846 15.1223C21.25 15.806 20.9618 16.3671 21.0323 17.1306C20.7993 16.9803 20.6552 16.824 20.5724 16.6553C20.091 15.6834 21.7589 14.4324 21.7344 12.9546ZM18.9535 9.16806C20.5141 10.5263 20.6214 13.1508 18.8523 13.4053C18.5764 12.881 18.7082 12.2556 19.1068 11.3388C18.4721 12.0195 18.1839 12.5806 18.2545 13.344C16.6877 12.3261 18.9842 10.9004 18.9535 9.16806ZM15.446 25.2709C15.8139 25.9791 16.8379 26.7089 17.4757 26.8714C15.8691 28.6006 14.4924 24.9582 12.9931 24.4001C15.5839 23.3362 17.7762 24.5074 17.77 26.1508C17.2304 26.2827 16.0684 25.8596 15.446 25.2709ZM18.8707 21.9289C14.5629 21.8676 12.7969 16.594 14.7438 13.1754C15.6453 15.4994 18.42 16.6829 19.8335 18.0657C19.9438 18.173 20.045 18.2834 20.1339 18.3938C20.8054 19.1971 20.9556 20.1016 20.0082 21.3464C19.9346 21.1225 19.8488 20.9079 19.7507 20.6964C19.7047 20.6013 19.6587 20.5063 19.6096 20.4143C18.9872 19.2645 17.954 18.3386 16.3964 17.6365C17.7762 18.8077 19.024 20.1353 18.8707 21.9289ZM19.1191 23.3577C19.8917 24.7987 22.5162 24.6362 21.7712 26.5065C21.5229 26.0497 20.7717 25.3966 20.1554 25.2464C20.7287 25.6174 21.1703 26.4513 21.1703 26.8928C19.7446 27.3098 18.4262 25.323 19.1191 23.3577ZM30.0096 29.6155C30.0587 29.6093 30.1047 29.6001 30.1537 29.5879C30.0986 29.7688 30.0403 29.9251 29.9729 30.0723C28.4828 33.2732 23.9573 27.9966 21.3879 28.5975C22.9946 26.3777 26.079 25.4487 28.3448 26.5525C29.1358 26.9388 29.8318 27.5765 30.3224 28.4933C29.933 28.9624 29.1879 29.0666 28.1823 28.9011C27.4924 28.7907 26.6799 28.5515 25.7785 28.2204C27.1736 29.3395 28.5839 29.8607 30.0096 29.6155ZM31.3066 35.5881C31.1625 35.2539 31.0613 34.9289 31 34.6192C30.9908 34.5794 30.9846 34.5395 30.9785 34.4997C30.8712 33.8497 30.9387 33.264 31.1226 32.7735C31.4047 32.0223 31.9658 31.4888 32.6158 31.2711C32.9009 31.173 33.2045 31.1393 33.5111 31.1761C33.5938 31.7218 33.1891 32.4761 32.3613 33.1659C33.1615 32.7551 33.7901 32.01 34.0721 31.311C35.5346 33.3407 32.0026 33.7546 31.3035 35.5881H31.3066ZM52.5328 30.2471C52.453 30.4525 52.3641 30.6487 52.2721 30.8357C51.2818 32.8195 49.6292 33.7209 48.9332 34.0275C47.2622 34.7572 46.9986 36.4558 46.7962 37.4431C46.7717 37.5504 46.7563 37.6669 46.7349 37.7895C46.7287 37.8416 46.6644 37.8876 46.5571 37.9275H40.7132C40.6764 37.906 40.658 37.8815 40.6549 37.8539C40.6335 37.7098 40.612 37.5718 40.5844 37.4431C40.3851 36.4558 40.1184 34.7572 38.4504 34.0275C37.503 33.6105 34.7773 32.0898 34.3696 28.2266C34.2714 27.3098 34.3021 26.2612 34.5229 25.0624C34.5229 25.0624 34.6516 25.5591 34.9092 26.2643C35.0625 26.6813 35.2587 27.1688 35.5009 27.6716C35.3323 28.0518 35.317 28.3891 35.7585 28.6773C35.7462 28.5178 35.7554 28.3707 35.7861 28.2296C36.4361 29.4254 37.3405 30.5751 38.4934 30.8817C38.9012 30.989 38.7264 29.5082 37.6287 28.3492C37.6287 28.3492 41.817 27.7299 43.6903 36.6735C45.5667 27.7329 49.7519 28.3492 49.7519 28.3492C48.6542 29.5082 48.4795 30.989 48.8903 30.8817C49.6599 30.6763 50.316 30.0968 50.8618 29.3794C50.9813 29.2199 51.0979 29.0544 51.2082 28.8857C51.5056 28.4228 51.7663 27.9291 51.9839 27.4539C52.5665 26.1846 52.8608 25.0624 52.8608 25.0624C53.1122 26.436 53.1153 27.6133 52.962 28.6221C52.87 29.223 52.7229 29.7626 52.5328 30.2471ZM56.7148 34.2237C56.3224 34.3893 55.9391 34.4721 55.5743 34.4905C55.3382 34.4997 55.1052 34.4843 54.8875 34.4414C53.9217 34.2544 53.195 33.5707 53.0264 32.6938C53.2165 32.6018 53.4556 32.565 53.7285 32.5926C53.9953 32.614 54.2988 32.6968 54.6207 32.8379C54.8323 32.9299 55.053 33.0464 55.2769 33.1874C55.0285 32.9421 54.7434 32.7336 54.4398 32.5681C54.4398 32.565 54.4368 32.565 54.4368 32.565C54.1056 32.3872 53.753 32.2553 53.4158 32.1817C53.2717 32.1511 53.1276 32.1265 52.9896 32.1174C53.054 32.0315 53.1184 31.9549 53.1828 31.8874C53.3422 31.7188 53.5016 31.6053 53.6611 31.5409C54.5931 31.1546 55.5436 32.3105 56.6382 32.9973C57.0398 33.2487 57.4599 33.4388 57.9075 33.4664C57.512 33.8067 57.1104 34.0582 56.7148 34.2237ZM57.141 30.8971C57.512 30.71 58.0302 30.8266 58.7721 30.9369C58.1865 30.6671 57.7021 30.5383 57.1042 30.5966C57.7021 29.2966 59.2596 30.6916 60.2806 30.4494C59.4221 31.7832 57.5396 32.0591 57.141 30.8971ZM60.5719 30.4372C61.2434 30.8265 61.9792 31.032 62.9021 30.8112C62.108 30.7806 61.3354 30.6334 60.7743 30.0324C62.2828 28.7263 64.4719 30.0662 64.8521 31.8445C63.1627 30.9829 60.6118 32.8655 60.5719 30.4372Z" fill="#03302D"/>
</g>
<path d="M57.9091 33.4662C57.5136 33.8065 57.112 34.058 56.7134 34.2235C56.324 34.3891 55.9407 34.4719 55.5759 34.4903C55.3367 34.4995 55.1068 34.4841 54.8891 34.4412C53.9233 34.2542 53.1966 33.5705 53.028 32.6936C53.2181 32.6016 53.4542 32.5648 53.7271 32.5924C53.9969 32.6138 54.3004 32.6966 54.6223 32.8377C54.8339 32.9297 55.0547 33.0462 55.2754 33.1903C55.0301 32.9419 54.745 32.7334 54.4414 32.5679C54.4414 32.5648 54.4384 32.5648 54.4384 32.5648C54.1072 32.387 53.7547 32.2551 53.4174 32.1815C53.2733 32.1509 53.1292 32.1263 52.9912 32.1172C53.0556 32.0313 53.12 31.9547 53.1844 31.8872C53.3438 31.7186 53.5032 31.6051 53.6627 31.5407C54.5947 31.1544 55.5452 32.3103 56.6398 32.9971C57.0414 33.2485 57.4615 33.4386 57.9091 33.4662Z" fill="#2EAC53"/>
<path d="M45.4795 52.4173C45.4121 52.3897 45.3446 52.3591 45.271 52.3345C45.268 52.3284 45.2618 52.3284 45.2557 52.3284C45.1668 52.2947 45.0779 52.2671 44.989 52.2395C44.9706 52.31 44.9522 52.3775 44.9399 52.4511H45.55C45.5286 52.4388 45.504 52.4296 45.4795 52.4173ZM49.5604 63.685C49.5512 63.5501 49.539 63.4152 49.5236 63.2864C49.5328 63.4704 49.5482 63.6544 49.5696 63.8353C49.5635 63.7831 49.5635 63.7371 49.5604 63.685ZM49.9805 58.3746C49.9805 58.393 49.9866 58.4145 49.9897 58.4329C49.9927 58.4206 49.9958 58.4022 50.0019 58.39C49.9927 58.3838 49.9866 58.3808 49.9805 58.3746ZM42.7937 52.2395C42.6005 52.2947 42.4135 52.3652 42.2326 52.4511H42.8427C42.8305 52.3775 42.809 52.31 42.7937 52.2395ZM40.6321 60.4412C40.5831 60.5086 40.5371 60.5699 40.4941 60.6343C40.5432 60.6466 40.5923 60.6619 40.6444 60.6742C40.6382 60.5975 40.6352 60.5209 40.6321 60.4412Z" fill="#03302D"/>
<mask id="mask1_969_777" style="mask-type:luminance" maskUnits="userSpaceOnUse" x="27" y="51" width="38" height="21">
<path d="M27.4717 51.019H64.3622V71.2825H27.4717V51.019Z" fill="white"/>
</mask>
<g mask="url(#mask1_969_777)">
<path d="M28.0049 51.0251C28.0049 51.8131 28.6457 52.4509 29.4306 52.4509H31.7884C31.7087 52.8862 31.6688 53.3553 31.6872 53.8582C31.7884 56.6053 34.1768 57.8808 34.2443 59.9105C34.3087 61.9372 34.603 63.5744 35.2898 64.2612C35.9796 64.948 37.8131 67.827 37.6506 69.2343C37.4881 70.6386 38.9016 71.8466 40.9466 71.0004C42.9917 70.1511 44.2365 71.2273 45.4138 70.3136C46.0454 69.823 47.0634 68.7867 47.9985 67.8332L48.0046 67.8301L48.5596 67.2659L48.5657 67.2598C49.1605 66.6558 49.6726 66.1499 49.9669 65.9261C49.97 65.9261 49.973 65.9261 49.9761 65.923H49.9792L50.4605 65.457C50.4605 65.4662 50.4636 65.4723 50.4636 65.4815C50.948 64.9572 51.1964 64.3563 51.2485 63.6756C51.3098 62.7926 51.5735 62.532 52.7509 62.0414C53.9313 61.5478 54.2594 60.7629 53.9957 59.1256C53.7351 57.4914 53.5726 56.9365 54.753 56.1178C55.9304 55.2992 59.3398 54.0237 59.5329 52.552C59.5391 52.5183 59.5421 52.4846 59.5452 52.4509H62.4334C62.832 52.4509 63.1846 52.2884 63.4452 52.0339C63.7028 51.7733 63.8622 51.4176 63.8622 51.0251H28.0049ZM42.823 67.4254C42.7341 67.8608 42.6084 68.2563 42.4521 68.615C42.1056 68.4832 41.7775 68.2961 41.4771 68.0601C41.5844 67.7994 41.6702 67.5112 41.7346 67.2046C42.0872 65.506 41.6579 64.2582 41.2502 63.0563C40.9834 62.2806 40.7259 61.5202 40.6431 60.674C40.591 60.6617 40.5419 60.6464 40.4929 60.6341C39.9042 61.4742 39.4136 62.4155 39.3278 63.7553C39.2848 64.482 39.1959 65.1289 39.0733 65.7023L38.1136 64.7426C38.1596 64.4145 38.1933 64.065 38.2179 63.6848C38.316 62.1825 38.8096 61.1369 39.4136 60.2386C39.7509 59.7296 40.1249 59.2697 40.4806 58.7976C40.6002 58.6412 40.7136 58.4817 40.8301 58.3192C41.241 57.7214 41.5966 57.0806 41.799 56.2865C41.1704 56.7954 40.5695 57.0438 39.8674 57.3841C39.8459 57.3933 39.8306 57.4025 39.8091 57.4148C39.6068 57.519 39.4473 57.6355 39.3247 57.7582C38.8341 58.2457 38.8648 58.8711 38.7483 59.5855C38.6471 60.1803 38.4386 60.8395 37.7334 61.5294L36.9516 60.7384C37.712 59.9933 37.6476 59.2053 37.7978 58.3744C36.7124 59.144 36.182 60.1558 35.532 61.1615C35.3726 60.2478 35.5412 59.2912 36.0287 58.4756C36.4518 57.9912 36.9638 57.5313 37.666 57.1358C37.9542 56.9733 38.273 56.82 38.6287 56.6789C38.6716 56.6605 38.7115 56.6421 38.7575 56.6268C38.8924 56.5747 39.0334 56.5164 39.1806 56.452C40.4407 55.9247 42.1332 55.057 41.9216 53.7233C41.8879 53.3737 41.8296 53.0334 41.7561 52.7115C41.9094 52.6134 42.0688 52.5244 42.2313 52.4509C42.4122 52.365 42.5992 52.2945 42.7924 52.2393C42.8077 52.3098 42.8292 52.3773 42.8414 52.4509C43.0039 53.1714 43.0898 53.944 43.0898 54.7964C43.0898 55.6487 42.9794 56.3018 42.7893 56.9058C42.5594 57.8409 42.6176 58.7424 42.8598 59.4813C42.8629 59.4905 42.8629 59.4966 42.869 59.5027C42.9886 59.8615 43.1419 60.1803 43.3289 60.4379H43.3351C43.5528 60.7414 43.8134 60.9652 44.0924 61.0756L43.8379 61.7042L43.6815 62.1089C43.237 61.931 42.8322 61.603 42.5011 61.1707H42.498C42.1822 60.769 41.9308 60.2692 41.7653 59.7143C41.7223 60.1558 41.7499 60.5728 41.8174 60.9744C41.9155 61.5662 42.1087 62.1273 42.3049 62.6976C42.7617 64.0374 43.237 65.4325 42.823 67.4254ZM52.245 61.1615C51.9445 60.6954 51.6655 60.2263 51.3497 59.7848C51.1075 59.4414 50.8377 59.1134 50.5127 58.8129V58.8098C50.3594 58.6657 50.1877 58.5247 50.0006 58.3898C49.9945 58.402 49.9914 58.4204 49.9884 58.4327V58.4358C50.0773 58.9601 50.0896 59.4629 50.2919 59.9565C50.4023 60.2233 50.5648 60.4808 50.8254 60.7384L50.1202 61.4527L50.0436 61.5294C49.8473 61.3393 49.691 61.1492 49.5683 60.9652C48.5289 59.4537 49.4763 58.1476 47.9127 57.3841C47.2289 57.053 46.5238 56.6759 45.9473 56.1516C46.582 58.9478 49.1238 59.8676 49.5223 63.2801C49.5223 63.2801 49.5223 63.2832 49.5223 63.2862C49.5377 63.415 49.5499 63.5499 49.5591 63.6848C49.5622 63.7369 49.5622 63.7829 49.5683 63.8351C49.5683 63.8381 49.5683 63.8442 49.5683 63.8473C49.5898 64.1601 49.6174 64.4605 49.6572 64.7426L48.6976 65.6992C48.578 65.1259 48.4891 64.4789 48.4431 63.7523C48.3542 62.3082 47.79 61.3301 47.1431 60.4409C47.1063 61.1921 46.9131 61.8759 46.6893 62.5534L46.5238 63.0532C46.5023 63.1207 46.4778 63.182 46.4563 63.2494C46.3337 63.6143 46.211 63.9853 46.116 64.3747C45.9075 65.1994 45.8124 66.1101 46.0393 67.2016C46.1006 67.5112 46.1896 67.7964 46.2938 68.057C45.9933 68.2931 45.6622 68.477 45.3219 68.6119C44.9815 67.827 44.8068 66.8919 44.7945 66.0549C44.6044 66.6987 44.4787 67.5572 44.4511 68.8419C44.0832 68.894 43.703 68.894 43.3351 68.8419C43.3903 65.6869 44.0341 64.761 44.7424 63.7431C44.9141 63.5009 45.0858 63.2494 45.2544 62.9551C45.3771 62.7313 45.4997 62.486 45.6131 62.1947C45.6806 62.0261 45.745 61.8421 45.8063 61.6428C45.8155 61.6152 45.8216 61.5876 45.8278 61.5601C45.8676 61.4098 45.9075 61.2534 45.9351 61.094C45.9443 61.0511 45.9504 61.0051 45.9596 60.9591C45.9841 60.8181 46.0025 60.677 46.0117 60.5299C46.024 60.4011 46.0301 60.2754 46.0301 60.1405C46.0301 59.6407 45.9504 59.1072 45.745 58.5155C45.6561 58.3744 45.5671 58.2273 45.4874 58.077C45.2299 58.6013 44.8313 59.1072 44.2181 59.5457L43.5681 58.6473C44.0924 58.2702 44.399 57.8379 44.5707 57.3994C44.7393 56.9671 44.7914 56.5164 44.7976 56.0964C44.7271 55.7009 44.6903 55.2716 44.6903 54.7964C44.6903 54.6799 44.6933 54.5634 44.6933 54.4499C44.6995 54.3058 44.7056 54.1678 44.7148 54.0268C44.7209 53.9501 44.724 53.8766 44.7301 53.803C44.7485 53.6129 44.7669 53.4289 44.7945 53.245C44.8037 53.1622 44.816 53.0825 44.8313 53.0027C44.8436 52.9292 44.8558 52.8556 44.8712 52.7851C44.8834 52.7115 44.8988 52.6318 44.9141 52.5582C44.9233 52.5214 44.9325 52.4846 44.9386 52.4509C44.9509 52.3773 44.9723 52.3098 44.9877 52.2393C45.0766 52.2669 45.1655 52.2945 45.2544 52.3282C45.2605 52.3282 45.2667 52.3282 45.2697 52.3343C45.3433 52.3589 45.4108 52.3895 45.4782 52.4171C45.5028 52.4294 45.5273 52.4386 45.5488 52.4509C45.7113 52.5244 45.8676 52.6103 46.0179 52.7115C45.9504 53.0181 45.8983 53.34 45.8615 53.6742C45.8676 54.361 46.2294 54.9251 46.7629 55.3912C47.3669 55.9124 48.1917 56.3171 49.0164 56.6268C49.5101 56.8138 49.9332 57.0223 50.3011 57.2461C50.4851 57.3596 50.6598 57.4792 50.8193 57.6018C51.1811 57.8777 51.4846 58.169 51.7483 58.4756C51.7605 58.5001 51.7728 58.5216 51.7851 58.5461C52.245 59.3433 52.3952 60.2754 52.245 61.1615Z" fill="#03302D"/>
</g>
<path d="M44.0907 61.0754L43.8392 61.704L43.6829 62.1087C43.2383 61.9309 42.8336 61.6028 42.5024 61.1705H42.4994C42.1836 60.7688 41.9322 60.2691 41.7666 59.7141C41.7237 60.1556 41.7513 60.5726 41.8187 60.9743C41.9168 61.566 42.1069 62.1271 42.3062 62.6974C42.7631 64.0372 43.2383 65.4323 42.8244 67.4283C42.7355 67.8606 42.6098 68.2561 42.4503 68.6148C42.1069 68.483 41.7789 68.296 41.4784 68.0599C41.5857 67.7993 41.6715 67.5111 41.7329 67.2045C42.0885 65.5059 41.6593 64.258 41.2515 63.0561C40.9848 62.2804 40.7272 61.52 40.6444 60.6738C40.6383 60.5971 40.6352 60.5205 40.6291 60.4408C40.5831 60.5082 40.5371 60.5696 40.4942 60.6339C39.9055 61.474 39.4149 62.4153 39.3291 63.7552C39.2831 64.4818 39.1973 65.1288 39.0746 65.7021L38.1149 64.7424C38.1609 64.4144 38.1947 64.0648 38.2192 63.6877C38.3173 62.1823 38.8109 61.1368 39.4149 60.2384C39.7522 59.7325 40.1263 59.2696 40.4819 58.7974C40.5984 58.641 40.7149 58.4816 40.8315 58.3191C41.2423 57.7212 41.598 57.0804 41.8003 56.2863C41.1718 56.7953 40.5708 57.0436 39.8687 57.3839C39.8473 57.3931 39.8289 57.4023 39.8105 57.4146C39.6081 57.5188 39.4456 57.6354 39.323 57.758C38.8355 58.2455 38.8661 58.871 38.7496 59.5854C38.6454 60.1802 38.4399 60.8394 37.7348 61.5292L36.9529 60.7382C37.7133 59.9931 37.6489 59.2052 37.7991 58.3743C36.7138 59.1438 36.1833 60.1556 35.5333 61.1613C35.3739 60.2476 35.5425 59.291 36.03 58.4754C36.4532 57.991 36.9652 57.5311 37.6673 57.1356C37.9555 56.9731 38.2713 56.8198 38.63 56.6788C38.673 56.6604 38.7128 56.642 38.7588 56.6266C38.8937 56.5745 39.0348 56.5162 39.1819 56.4519C40.4421 55.9245 42.1345 55.0568 41.923 53.7231C41.8892 53.3736 41.831 53.0363 41.7574 52.7113C41.9107 52.6132 42.0671 52.5243 42.2326 52.4507H42.8428C43.0053 53.1712 43.0911 53.9438 43.0911 54.7962C43.0911 55.6486 42.9777 56.3016 42.7907 56.9056C42.5607 57.8408 42.619 58.7422 42.8612 59.4811C42.8642 59.4903 42.8642 59.4964 42.8704 59.5026C42.9899 59.8613 43.1432 60.1802 43.3303 60.4377H43.3364C43.5541 60.7413 43.8147 60.9651 44.0907 61.0754Z" fill="#2EAC53"/>
<path d="M30.1555 29.5874C30.1003 29.7683 30.0421 29.9247 29.9746 30.0718L30.0114 29.615C30.0605 29.6089 30.1064 29.5997 30.1555 29.5874Z" fill="#03302D"/>
<path d="M36.3541 21.4687C36.4645 22.2842 36.9183 23.0845 37.4456 23.5076C35.4558 24.5623 35.8206 21.2234 34.9131 20.2239C36.5534 20.0828 38.5801 21.3798 37.7369 23.2071C37.0808 22.9833 36.627 22.1003 36.3541 21.4687Z" fill="#03302D"/>
<path d="M40.8561 20.9317C40.5893 20.3338 40.7702 19.506 41.1749 18.5157C40.4973 19.2147 40.1264 19.9966 40.2613 20.8949C38.0445 19.5704 41.1197 17.9239 41.1136 15.885C43.0054 17.418 42.7631 20.3062 40.8561 20.9317Z" fill="#03302D"/>
<path d="M41.8886 26.6258C39.908 26.9355 40.653 24.2313 39.5615 23.011C42.6582 23.9983 42.0144 24.7954 42.3087 26.3928C41.8181 26.1445 41.3919 25.5987 41.0455 24.7433C41.07 25.5527 41.2938 26.1199 41.8886 26.6258Z" fill="#03302D"/>
<path d="M52.9634 28.6219C52.8714 29.2229 52.7242 29.7625 52.5341 30.2469C52.4544 30.4524 52.3655 30.6486 52.2735 30.8356C51.2832 32.8193 49.6306 33.7207 48.9346 34.0273C47.2636 34.7571 46.9969 36.4557 46.7976 37.4429C46.7731 37.5502 46.7577 37.6667 46.7363 37.7894C46.7301 37.8415 46.6658 37.8875 46.5584 37.9273H40.7146C40.6778 37.9059 40.6594 37.8814 40.6563 37.8538C40.6349 37.7097 40.6134 37.5717 40.5858 37.4429C40.3865 36.4557 40.1198 34.7571 38.4518 34.0273C37.5044 33.6104 34.7787 32.0865 34.3709 28.2264C34.2728 27.3097 34.3035 26.2611 34.5242 25.0623C34.5242 25.0623 34.653 25.559 34.9106 26.2641C35.0639 26.6811 35.2601 27.1686 35.4992 27.6715C35.3337 28.0516 35.3153 28.3889 35.7599 28.6771C35.7476 28.5177 35.7568 28.3705 35.7874 28.2295C36.4374 29.4252 37.3419 30.575 38.4948 30.8816C38.9025 30.9889 38.7278 29.508 37.6301 28.346C37.6301 28.346 41.8183 27.7297 43.6917 36.6733C45.5681 27.7328 49.7532 28.346 49.7532 28.346C48.6556 29.508 48.4808 30.9889 48.8886 30.8816C49.6582 30.6762 50.3174 30.0967 50.8632 29.3792C50.9827 29.2198 51.0962 29.0542 51.2066 28.8856C51.507 28.4226 51.7646 27.929 51.9853 27.4538C52.5679 26.1844 52.8622 25.0623 52.8622 25.0623C53.1106 26.4358 53.1167 27.6132 52.9634 28.6219Z" fill="#2EAC53"/>
<path fill-rule="evenodd" clip-rule="evenodd" d="M31.9585 15.3489C31.9094 15.4593 31.8511 15.5696 31.7837 15.6892C31.7806 15.1894 31.4985 14.6835 30.9773 14.2236C30.683 13.963 30.3151 13.7177 29.8766 13.4939C30.7627 14.334 31.1061 15.2446 31.1122 15.9897C30.3181 16.0725 29.6344 15.7413 29.1285 15.1833C28.1903 14.147 27.8622 12.3319 28.5613 10.946C28.8127 11.2373 29.0886 11.4918 29.3646 11.7187C29.8735 12.1357 30.404 12.4668 30.8608 12.7857C31.0693 12.9298 31.2625 13.0708 31.4342 13.2149C32.0842 13.7637 32.4092 14.3585 31.9585 15.3489Z" fill="#2EAC53"/>
<path fill-rule="evenodd" clip-rule="evenodd" d="M21.7725 26.506C21.5242 26.0492 20.773 25.3961 20.1536 25.2459C20.73 25.6168 21.1716 26.4508 21.1716 26.8923C19.7459 27.3093 18.4275 25.3225 19.1204 23.3572C19.893 24.7982 22.5175 24.6357 21.7725 26.506Z" fill="#2EAC53"/>
<path fill-rule="evenodd" clip-rule="evenodd" d="M15.447 25.2671C15.8149 25.9784 16.839 26.7082 17.4767 26.8707C15.8701 28.5999 14.4934 24.9575 12.9941 24.3994C15.5849 23.3355 17.7772 24.5067 17.771 26.1501C17.2314 26.282 16.0694 25.8589 15.447 25.2671Z" fill="#2EAC53"/>
<path fill-rule="evenodd" clip-rule="evenodd" d="M32.2464 26.2425C31.2162 27.7969 29.7843 26.0156 28.4506 25.0498C28.098 24.7922 27.7515 24.5929 27.4204 24.5316C27.7914 24.3017 28.1593 24.13 28.5211 24.0042C30.4864 23.3297 32.1973 24.1116 32.4211 25.479C31.906 25.6998 30.6949 25.4698 29.9836 24.9884C30.465 25.6323 31.5902 26.1811 32.2464 26.2425Z" fill="#2EAC53"/>
<path fill-rule="evenodd" clip-rule="evenodd" d="M60.2814 30.449C59.4229 31.7827 57.5404 32.0587 57.1418 30.8967C57.5128 30.7096 58.0309 30.8261 58.7729 30.9365C58.1873 30.6667 57.7029 30.5379 57.105 30.5962C57.7059 29.2962 59.2604 30.6912 60.2814 30.449Z" fill="#2EAC53"/>
<path fill-rule="evenodd" clip-rule="evenodd" d="M53.9291 24.5685C54.0394 24.0228 54.6772 23.4556 55.6951 23.0907C54.7998 23.2011 53.9474 23.6855 53.4477 24.2435C52.7732 21.8336 56.2316 22.6553 57.5194 21.1775C57.6849 24.0412 55.459 25.335 53.9291 24.5685Z" fill="#2EAC53"/>
<path fill-rule="evenodd" clip-rule="evenodd" d="M33.5339 9.23832C34.328 9.96497 34.699 10.7407 34.5886 11.2803C33.7823 11.3386 33.0127 10.9124 32.5528 10.1765C32.4394 9.99256 32.3443 9.7902 32.2738 9.56945V9.56638C32.0254 8.79681 32.0714 7.82794 32.5896 6.76709C32.749 7.25152 33.1016 7.65011 33.5125 8.00577C33.6596 8.13148 33.8129 8.25412 33.9662 8.37369C35.0455 9.20766 36.1646 9.90058 35.1559 11.1699C34.9075 10.4617 34.3096 9.68596 33.5339 9.23832Z" fill="#2EAC53"/>
<path fill-rule="evenodd" clip-rule="evenodd" d="M26.1164 23.3449C24.8164 25.4819 23.0534 22.4005 21.0942 22.471C23.0749 20.3892 25.5431 21.1281 26.0244 22.7746C25.5523 23.0628 24.6968 22.9861 23.7372 22.4956C24.4301 23.0689 25.3652 23.3571 26.1164 23.3449Z" fill="#2EAC53"/>
<path fill-rule="evenodd" clip-rule="evenodd" d="M31.0658 34.5422L31.0045 34.6188H31.0014C30.9922 34.579 30.9861 34.5391 30.98 34.4993L31.0658 34.5422Z" fill="#2EAC53"/>
<path fill-rule="evenodd" clip-rule="evenodd" d="M36.3541 21.4687C36.4645 22.2842 36.9183 23.0845 37.4456 23.5076C35.4558 24.5623 35.8206 21.2234 34.9131 20.2239C36.5534 20.0828 38.5801 21.3798 37.7369 23.2071C37.0808 22.9833 36.627 22.1003 36.3541 21.4687Z" fill="#2EAC53"/>
<path fill-rule="evenodd" clip-rule="evenodd" d="M64.8529 31.8438C63.1605 30.9823 60.6126 32.8648 60.5728 30.4365C61.2442 30.8259 61.9801 31.0313 62.9029 30.8106C62.1088 30.7799 61.3362 30.6328 60.7751 30.0318C62.2805 28.7257 64.4728 30.0655 64.8529 31.8438Z" fill="#2EAC53"/>
<path fill-rule="evenodd" clip-rule="evenodd" d="M48.2562 17.4796C48.9828 16.3605 49.1821 15.0482 48.7467 13.3926C48.6363 14.7539 48.3113 16.0631 47.2352 16.9768C45.1227 14.2879 47.5939 10.6485 50.6814 10.1426C49.0595 12.9633 51.871 17.3723 48.2562 17.4796Z" fill="#2EAC53"/>
<path fill-rule="evenodd" clip-rule="evenodd" d="M63.3847 28.2106C60.2788 27.2172 56.5567 30.8873 55.689 27.3797C56.9368 27.8519 58.2675 27.7722 59.7913 27.0026C58.4361 27.1774 57.0871 27.1345 55.968 26.276C58.1602 23.6453 62.238 25.301 63.3847 28.2106Z" fill="#2EAC53"/>
<path fill-rule="evenodd" clip-rule="evenodd" d="M20.0097 21.346C19.9361 21.1222 19.8503 20.9045 19.7521 20.696C19.7062 20.601 19.6602 20.5059 19.608 20.414C18.9887 19.2642 17.9554 18.3383 16.3979 17.6361C17.7776 18.8074 19.0255 20.135 18.8691 21.9286C14.5644 21.8673 12.7984 16.5937 14.7453 13.175C15.6467 15.4991 18.4215 16.6826 19.8319 18.0654C19.9422 18.1727 20.0434 18.2831 20.1354 18.3934C20.8038 19.1967 20.9571 20.1012 20.0097 21.346Z" fill="#2EAC53"/>
<path fill-rule="evenodd" clip-rule="evenodd" d="M32.5955 20.6374C31.6696 19.5827 30.4401 18.9235 28.8856 18.6905C28.5821 18.6476 28.2663 18.62 27.9382 18.6077C28.254 18.7273 28.5667 18.8561 28.8672 18.9971C30.0814 19.5766 31.1146 20.3799 31.7094 21.6738C30.6363 22.1153 29.6 22.1337 28.6679 21.8485C26.1292 21.0759 24.3479 18.0558 24.6299 15.137C25.7766 16.3113 27.4599 16.719 28.996 17.0686C31.2955 17.5959 33.2608 17.9945 32.5955 20.6374Z" fill="#2EAC53"/>
<path fill-rule="evenodd" clip-rule="evenodd" d="M47.3804 22.2842C47.3099 21.7354 47.5184 21.0731 48.0274 20.3097C47.3774 20.7849 47.037 21.2939 46.9512 22.0665C45.5745 20.6102 48.2297 19.6965 48.6222 18.1052C49.5573 21.2173 48.5333 21.1345 47.3804 22.2842Z" fill="#2EAC53"/>
<path fill-rule="evenodd" clip-rule="evenodd" d="M41.8886 26.6258C39.908 26.9355 40.653 24.2313 39.5615 23.011C42.6582 23.9983 42.0144 24.7954 42.3087 26.3928C41.8181 26.1445 41.3919 25.5987 41.0486 24.7433C41.07 25.5527 41.2938 26.1199 41.8886 26.6258Z" fill="#2EAC53"/>
<path fill-rule="evenodd" clip-rule="evenodd" d="M46.457 24.8043C46.3313 25.5371 45.7426 25.8682 45.1662 26.6163C45.0221 26.0859 45.1478 25.3991 45.5495 24.5744C44.9608 25.1324 44.694 25.6781 44.7094 26.46C43.5198 25.4911 44.7186 24.5284 45.4207 23.397C45.5464 23.1977 45.6537 22.9923 45.7304 22.7838C45.7886 22.6305 45.8285 22.4741 45.8469 22.3147C46.0983 22.8758 46.2669 23.3326 46.365 23.7128H46.3681V23.7159C46.4846 24.1727 46.5061 24.5192 46.457 24.8043Z" fill="#2EAC53"/>
<path fill-rule="evenodd" clip-rule="evenodd" d="M40.8561 20.9317C40.5893 20.3338 40.7702 19.506 41.1749 18.5157C40.4973 19.2147 40.1264 19.9966 40.2613 20.8949C38.0445 19.5704 41.1197 17.9239 41.1136 15.885C43.0054 17.418 42.7631 20.3062 40.8561 20.9317Z" fill="#2EAC53"/>
<path fill-rule="evenodd" clip-rule="evenodd" d="M50.4333 25.3899C50.1543 25.4727 49.8508 25.4635 49.5442 25.3347C49.5319 25.1508 49.5718 24.9791 49.6638 24.8166C49.8355 24.5008 50.2003 24.2095 50.7307 23.8783C50.1175 24.0592 49.6944 24.2769 49.394 24.651C49.305 24.7644 49.2253 24.8901 49.1579 25.0342C49.0291 24.7767 48.9862 24.5621 49.0015 24.3781C49.1027 23.3479 51.1723 23.2651 51.7487 21.9805C52.2607 23.4154 51.5034 25.071 50.4333 25.3899Z" fill="#2EAC53"/>
<path fill-rule="evenodd" clip-rule="evenodd" d="M38.2402 17.121C37.7006 15.9957 37.9918 14.4106 38.7001 12.4882C37.4553 13.8679 36.7899 15.3825 37.1057 17.0903C32.9574 15.0238 38.0777 11.7278 38.5008 8.08535C38.5284 7.88299 38.5376 7.68063 38.5284 7.47827C38.7215 7.62544 38.9024 7.78181 39.0741 7.95351C41.7293 10.5903 41.6189 15.8884 38.2402 17.121Z" fill="#2EAC53"/>
<path fill-rule="evenodd" clip-rule="evenodd" d="M30.0113 29.615L29.9746 30.0718C28.4845 33.2728 23.959 27.9961 21.3896 28.597C22.9963 26.3772 26.0807 25.4482 28.3465 26.552C29.1375 26.9383 29.8335 27.5761 30.3241 28.4928C29.9347 28.9619 29.1896 29.0662 28.184 28.9006C27.4941 28.7902 26.6816 28.5511 25.7802 28.2199C27.1753 29.339 28.5856 29.8603 30.0113 29.615Z" fill="#2EAC53"/>
<path fill-rule="evenodd" clip-rule="evenodd" d="M30.1555 29.5874C30.1003 29.7683 30.0421 29.9247 29.9746 30.0688L30.0114 29.615C30.0605 29.6089 30.1064 29.5997 30.1555 29.5874Z" fill="#2EAC53"/>
<path fill-rule="evenodd" clip-rule="evenodd" d="M21.6345 17.1914C21.3555 16.6671 21.4874 16.0416 21.886 15.1218C21.2513 15.8055 20.9631 16.3666 21.0336 17.13C20.8036 16.9798 20.6565 16.8234 20.5737 16.6548C20.0954 15.6829 21.7603 14.4319 21.7357 12.9541C21.794 13.0062 21.8522 13.0583 21.9074 13.1135C23.2994 14.5086 23.3331 16.9461 21.6345 17.1914Z" fill="#2EAC53"/>
<path d="M42.839 52.4511H42.2319C42.4128 52.3652 42.5999 52.2947 42.793 52.2395C42.8083 52.31 42.8267 52.3775 42.839 52.4511Z" fill="#03302D"/>
<path d="M45.5496 52.4511H44.9395C44.9517 52.3775 44.9701 52.31 44.9885 52.2395C45.0774 52.2671 45.1663 52.2947 45.2553 52.3284C45.2614 52.3284 45.2645 52.3284 45.2706 52.3345C45.3442 52.3591 45.4116 52.3897 45.4791 52.4173C45.5036 52.4296 45.5281 52.4388 45.5496 52.4511Z" fill="#03302D"/>
<path d="M31.308 35.5877C31.1639 35.2535 31.0627 34.9285 31.0014 34.6188H31.0045L31.0658 34.5422L30.98 34.4992C30.8726 33.8492 30.9401 33.2636 31.1241 32.773C31.4061 32.0219 31.9672 31.4853 32.6172 31.2707C32.9024 31.1726 33.2059 31.1388 33.5125 31.1756C33.5953 31.7214 33.1906 32.4756 32.3627 33.1655C33.163 32.7547 33.7915 32.0096 34.0736 31.3105C35.5361 33.3403 32.004 33.7542 31.305 35.5877H31.308Z" fill="#2EAC53"/>
<path d="M42.793 52.2395C42.5999 52.2947 42.4128 52.3652 42.2319 52.4511H42.8421C42.8267 52.3775 42.8083 52.31 42.793 52.2395ZM45.4789 52.4173C45.4114 52.3897 45.344 52.3591 45.2704 52.3345C45.2642 52.3284 45.2612 52.3284 45.255 52.3284C45.1661 52.2947 45.0772 52.2671 44.9883 52.2395C44.9699 52.31 44.9515 52.3775 44.9392 52.4511H45.5494C45.5279 52.4388 45.5034 52.4296 45.4789 52.4173ZM49.5567 63.685C49.5506 63.5501 49.5383 63.4152 49.523 63.2864C49.5322 63.4704 49.5475 63.6544 49.5659 63.8353C49.5628 63.7831 49.5628 63.7371 49.5567 63.685Z" fill="#2EAC53"/>
<path d="M52.2463 61.1613C51.9459 60.6953 51.6669 60.2262 51.348 59.7846C51.1088 59.4412 50.839 59.1132 50.514 58.8127V58.8096C50.3577 58.6655 50.186 58.5245 50.002 58.3896C49.9928 58.3835 49.9867 58.3804 49.9805 58.3743C49.9805 58.3927 49.9867 58.4141 49.9897 58.4325V58.4356C50.0786 58.9599 50.0909 59.4627 50.2933 59.9563C50.4036 60.2231 50.5661 60.4806 50.8237 60.7382L50.1216 61.4526L50.0419 61.5292C49.8487 61.3391 49.6923 61.149 49.5666 60.9651C48.5303 59.4535 49.4746 58.1474 47.914 57.3839C47.2303 57.0528 46.5251 56.6757 45.9456 56.1514C46.5803 58.9476 49.1251 59.8674 49.5237 63.2799C49.5237 63.2799 49.5237 63.283 49.5237 63.2861C49.5329 63.47 49.5482 63.654 49.5666 63.8349C49.5666 63.8379 49.5666 63.8441 49.5697 63.8471C49.5881 64.1599 49.6187 64.4604 49.6586 64.7424L48.6989 65.699C48.5763 65.1257 48.4904 64.4788 48.4444 63.7521C48.3525 62.308 47.7914 61.3299 47.1444 60.4408C47.1077 61.192 46.9145 61.8757 46.6907 62.5533L46.522 63.053C46.5006 63.1205 46.4791 63.1818 46.4577 63.2493C46.335 63.6141 46.2124 63.9851 46.1173 64.3745C45.9058 65.1993 45.8107 66.1099 46.0407 67.2014C46.102 67.5111 46.1878 67.7962 46.2952 68.0568C45.9947 68.2929 45.6635 68.4769 45.3232 68.6118C44.9829 67.8269 44.8081 66.8917 44.7959 66.0547C44.6058 66.6986 44.477 67.5571 44.4525 68.8417C44.0815 68.8938 43.7044 68.8938 43.3364 68.8417C43.3916 65.6868 44.0355 64.7608 44.7437 63.7429C44.9154 63.5007 45.0871 63.2493 45.2558 62.9549C45.3784 62.7311 45.498 62.4858 45.6114 62.1946C45.6789 62.0259 45.7463 61.842 45.8077 61.6427C45.8169 61.6151 45.823 61.5875 45.8291 61.5599C45.869 61.4096 45.9058 61.2533 45.9364 61.0938C45.9456 61.0509 45.9518 61.0049 45.961 60.9589C45.9855 60.8179 46.0039 60.6769 46.0131 60.5297C46.0253 60.4009 46.0315 60.2752 46.0315 60.1403C46.0315 59.6405 45.9518 59.1071 45.7433 58.5153C45.6574 58.3743 45.5685 58.2271 45.4888 58.0769C45.2312 58.6012 44.8327 59.1071 44.2194 59.5455L43.5694 58.6471C44.0937 58.27 44.3973 57.8377 44.572 57.3993C44.7407 56.967 44.7928 56.5162 44.7989 56.0962C44.7284 55.7007 44.6885 55.2714 44.6885 54.7962C44.6885 54.6797 44.6947 54.5632 44.6947 54.4497C44.6977 54.3056 44.7069 54.1677 44.7161 54.0266C44.7192 53.95 44.7253 53.8764 44.7315 53.8028C44.7499 53.6127 44.7683 53.4287 44.7959 53.2448C44.8051 53.162 44.8173 53.0823 44.8327 53.0026C44.8418 52.929 44.8572 52.8554 44.8694 52.7849C44.8817 52.7113 44.9001 52.6316 44.9154 52.558C44.9216 52.5212 44.9308 52.4844 44.94 52.4507H45.5501C45.7126 52.5243 45.869 52.6101 46.0192 52.7113C45.9518 53.0179 45.8996 53.3398 45.8628 53.674C45.869 54.3608 46.2277 54.925 46.7643 55.391C47.3683 55.9122 48.193 56.317 49.0178 56.6266C49.5114 56.8137 49.9345 57.0221 50.3025 57.246C50.4864 57.3594 50.6612 57.479 50.8206 57.6016C51.1824 57.8745 51.486 58.1688 51.7496 58.4754C51.7619 58.5 51.7742 58.5214 51.7834 58.546C52.2463 59.3431 52.3966 60.2752 52.2463 61.1613Z" fill="#2EAC53"/>
<path d="M32.8963 45.2121C33.3562 44.9576 33.7088 44.6387 33.9572 44.2555C34.2055 43.8753 34.3282 43.3786 34.3282 42.7715C34.3282 42.33 34.2485 41.9621 34.086 41.6708C33.9296 41.3795 33.7119 41.1404 33.439 40.9564C33.1723 40.7724 32.881 40.6529 32.5744 40.5977C32.2647 40.5425 31.8999 40.5149 31.4706 40.5149H28.3433V48.7319H30.1982V45.721H31.0628L33.0312 48.7319H35.3093L32.8963 45.2121ZM32.3107 43.584C32.2494 43.725 32.1574 43.8507 32.0256 43.9642C31.8907 44.0807 31.722 44.1573 31.5197 44.1911C31.3204 44.2248 31.069 44.2401 30.7716 44.2401H30.1982V42.0264H30.8758C31.0966 42.0264 31.2928 42.0326 31.4614 42.0448C31.6301 42.0602 31.7772 42.0939 31.906 42.1552C32.0869 42.238 32.2126 42.3545 32.2893 42.5017C32.3628 42.6489 32.3996 42.8267 32.3996 43.0321C32.3996 43.2621 32.369 43.4491 32.3107 43.584Z" fill="white"/>
<path d="M42.1649 41.493C41.4995 40.7265 40.5889 40.3433 39.43 40.3433C38.271 40.3433 37.3543 40.7265 36.6951 41.493C36.0328 42.2626 35.7017 43.3051 35.7017 44.6265C35.7017 45.948 36.0328 46.9782 36.6951 47.7477C37.3543 48.5204 38.2649 48.9036 39.43 48.9036C40.592 48.9036 41.5087 48.5204 42.1679 47.7477C42.8302 46.9782 43.1613 45.9357 43.1613 44.6265C43.1613 43.3173 42.8271 42.2626 42.1649 41.493ZM41.0887 45.8223C41.0028 46.1626 40.8679 46.4569 40.687 46.7084C40.5276 46.9291 40.3375 47.0916 40.1198 47.1959C39.9021 47.3001 39.6722 47.3522 39.433 47.3522C39.1939 47.3522 38.9639 47.3001 38.7493 47.1989C38.5316 47.0947 38.3415 46.9352 38.1821 46.7176C38.0196 46.5029 37.8877 46.2209 37.7896 45.8775C37.6915 45.5341 37.6394 45.1171 37.6394 44.6265C37.6394 44.139 37.6915 43.7282 37.7958 43.3664C37.8969 43.0015 38.0288 42.7194 38.1913 42.511C38.366 42.2933 38.5561 42.1338 38.7677 42.0388C38.9731 41.9407 39.1969 41.8947 39.433 41.8947C39.6691 41.8947 39.8929 41.9437 40.1076 42.0418C40.3222 42.143 40.5123 42.3025 40.6778 42.5232C40.8373 42.7378 40.9691 43.0168 41.0703 43.3633C41.1715 43.7098 41.2205 44.1298 41.2205 44.6204C41.2205 45.0803 41.1776 45.4819 41.0887 45.8223Z" fill="white"/>
<path d="M50.6203 41.493C49.955 40.7265 49.0444 40.3433 47.8854 40.3433C46.7264 40.3433 45.8128 40.7265 45.1505 41.493C44.4913 42.2626 44.1602 43.3051 44.1602 44.6265C44.1602 45.948 44.4913 46.9782 45.1505 47.7477C45.8128 48.5204 46.7234 48.9036 47.8854 48.9036C49.0474 48.9036 49.9642 48.5204 50.6264 47.7477C51.2856 46.9782 51.6168 45.9357 51.6168 44.6265C51.6168 43.3173 51.2856 42.2626 50.6203 41.493ZM49.5472 45.8223C49.4583 46.1626 49.3264 46.4569 49.1455 46.7084C48.983 46.9291 48.7929 47.0916 48.5753 47.1959C48.3576 47.3001 48.1307 47.3522 47.8915 47.3522C47.6493 47.3522 47.4224 47.3001 47.2078 47.1989C46.9901 47.0947 46.8 46.9352 46.6375 46.7176C46.475 46.5029 46.3432 46.2209 46.2481 45.8775C46.1469 45.5341 46.0979 45.1171 46.0979 44.6265C46.0979 44.139 46.15 43.7282 46.2512 43.3664C46.3524 43.0015 46.4842 42.7194 46.6467 42.511C46.8215 42.2933 47.0116 42.1338 47.2231 42.0388C47.4316 41.9407 47.6554 41.8947 47.8915 41.8947C48.1276 41.8947 48.3484 41.9437 48.563 42.0418C48.7776 42.143 48.9708 42.3025 49.1333 42.5232C49.2958 42.7378 49.4276 43.0168 49.5288 43.3633C49.63 43.7098 49.679 44.1298 49.679 44.6204C49.679 45.0803 49.633 45.4819 49.5472 45.8223Z" fill="white"/>
<path d="M52.3164 40.5149V42.1031H54.5761V48.7319H56.4402V42.1031H58.6999V40.5149H52.3164Z" fill="white"/>
<path d="M65.2184 44.7673C64.9547 44.4117 64.5438 44.1327 63.992 43.9242C63.7099 43.823 63.4462 43.7402 63.2009 43.682C62.9556 43.6237 62.7011 43.5624 62.4344 43.5011C62.0297 43.406 61.7568 43.2987 61.6096 43.1822C61.4655 43.0687 61.392 42.9001 61.392 42.6824C61.392 42.5414 61.4349 42.4126 61.5299 42.3022C61.6188 42.1857 61.7261 42.1029 61.8549 42.0478C61.996 41.9834 62.1431 41.9374 62.2964 41.9129C62.4528 41.8883 62.6061 41.8791 62.7594 41.8791C63.2009 41.8791 63.6332 41.968 64.0563 42.1459C64.4795 42.3237 64.8351 42.5475 65.1264 42.8081H65.3257V40.9164C64.9853 40.76 64.5837 40.6282 64.1177 40.5209C63.6547 40.4166 63.1825 40.3645 62.7073 40.3645C61.7599 40.3645 60.9842 40.6067 60.3802 41.0912C59.7731 41.5756 59.4726 42.2011 59.4726 42.9645C59.4726 43.5348 59.6075 44.0131 59.8743 44.3963C60.141 44.7827 60.5795 45.0862 61.1865 45.31C61.4533 45.4112 61.7384 45.494 62.0389 45.5553C62.3424 45.6197 62.6306 45.6902 62.9004 45.7638C63.1611 45.8343 63.3573 45.9324 63.4922 46.0643C63.6271 46.1961 63.6945 46.3494 63.6945 46.5303C63.6945 46.7265 63.6486 46.8737 63.5566 46.9718C63.4646 47.073 63.345 47.1558 63.204 47.2202C63.0875 47.2723 62.9342 47.3091 62.7502 47.3305C62.5662 47.352 62.416 47.3643 62.3056 47.3643C61.8641 47.3643 61.4042 47.2692 60.9259 47.0822C60.4507 46.8952 60.0184 46.6254 59.632 46.2789H59.4297V48.2473C59.816 48.4312 60.2361 48.5845 60.6806 48.7041C61.1252 48.8206 61.6464 48.882 62.2443 48.882C63.2837 48.882 64.1023 48.6275 64.7063 48.1246C65.3103 47.6157 65.6139 46.9595 65.6139 46.1501C65.6139 45.5829 65.482 45.123 65.2184 44.7673Z" fill="white"/>
<path fill-rule="evenodd" clip-rule="evenodd" d="M18.8532 13.4052C18.5742 12.8809 18.7091 12.2555 19.1077 11.3387C18.473 12.0194 18.1818 12.5805 18.2523 13.3439C16.6886 12.326 18.982 10.9003 18.9544 9.16797C20.515 10.5262 20.6193 13.1508 18.8532 13.4052Z" fill="#2EAC53"/>
<path fill-rule="evenodd" clip-rule="evenodd" d="M22.5326 12.2643C22.3885 11.9883 22.3548 11.6848 22.4161 11.326C22.4713 11.001 22.6001 10.6331 22.7902 10.1947C22.1739 10.8539 21.8826 11.4027 21.9286 12.1324C21.9194 12.1477 21.9102 12.1631 21.901 12.1784C21.3951 11.8381 21.3185 11.4487 21.4381 11.0164C21.668 10.1732 22.6553 9.16449 22.6338 8.02393C22.7749 8.14657 22.9006 8.27534 23.0171 8.41331C23.3022 8.75671 23.5168 9.1461 23.6548 9.54161C24.081 10.7803 23.756 12.0864 22.5326 12.2643Z" fill="#2EAC53"/>
<path fill-rule="evenodd" clip-rule="evenodd" d="M22.9312 11.2249C22.9189 11.2188 22.9097 11.2096 22.8975 11.2035C22.9067 11.1881 22.9159 11.1697 22.9251 11.1575C22.9251 11.1789 22.9281 11.2004 22.9312 11.2249Z" fill="#2EAC53"/>
<path fill-rule="evenodd" clip-rule="evenodd" d="M52.2277 20.7081C51.9487 20.1807 52.0836 19.5583 52.4792 18.6385C51.8476 19.3192 51.5594 19.8803 51.6268 20.6468C50.0631 19.6258 52.3565 18.2001 52.3289 16.4678C53.8865 17.826 53.9969 20.4536 52.2277 20.7081Z" fill="#2EAC53"/>
<path fill-rule="evenodd" clip-rule="evenodd" d="M25.3168 9.4622C25.2647 9.15559 25.3291 8.85819 25.5008 8.53625C25.6541 8.24804 25.8932 7.93531 26.209 7.57965C25.418 8.01503 24.9703 8.44121 24.7833 9.14946C24.771 9.15866 24.7557 9.17092 24.7435 9.18625C24.3725 8.69875 24.4185 8.30937 24.6699 7.93531C25.1543 7.20866 26.4083 6.56172 26.7517 5.47021C26.8437 5.62965 26.9234 5.79215 26.9878 5.96078C27.1503 6.3747 27.2331 6.81314 27.2392 7.23012C27.2515 8.54238 26.531 9.67989 25.3168 9.4622Z" fill="#2EAC53"/>
<path fill-rule="evenodd" clip-rule="evenodd" d="M29.174 9.03593C29.1219 8.72932 29.1893 8.43192 29.361 8.10998C29.5143 7.81871 29.7565 7.50904 30.0723 7.15338C29.2813 7.58569 28.8306 8.01187 28.6436 8.72012C28.6313 8.72932 28.616 8.74159 28.6037 8.75385C28.2327 8.26942 28.2818 7.87696 28.5332 7.50597C29.0176 6.77626 30.2747 6.13239 30.6181 5.04395C30.7101 5.20338 30.7898 5.36588 30.8542 5.53758C31.0167 5.95149 31.0994 6.38687 31.1025 6.80692C31.1178 8.11918 30.3943 9.25361 29.1801 9.03593H29.174Z" fill="#2EAC53"/>
<path d="M11.5098 83.668C11.5098 84.134 11.3872 84.5357 11.1419 84.8699C10.9028 85.2071 10.5808 85.4647 10.1731 85.6425C9.7622 85.8234 9.31456 85.9123 8.82399 85.9123H4.67871V77.217H9.15513C9.56291 77.217 9.9155 77.3274 10.2098 77.5482C10.5103 77.7628 10.7403 78.0387 10.8966 78.3821C11.0591 78.7194 11.1419 79.0689 11.1419 79.4369C11.1419 79.863 11.0315 80.2647 10.8108 80.6387C10.5962 81.0067 10.2896 81.2826 9.89097 81.4604C10.3877 81.6076 10.7801 81.8774 11.0683 82.2699C11.3627 82.6562 11.5098 83.1222 11.5098 83.668ZM10.0995 83.4104C10.0995 83.1652 10.0443 82.9444 9.94003 82.7482C9.84192 82.5519 9.70088 82.3925 9.52305 82.2699C9.35135 82.1411 9.14593 82.0736 8.90984 82.0736H6.0523V84.7227H8.82399C9.06928 84.7227 9.2839 84.6675 9.47399 84.551C9.67022 84.4284 9.82046 84.2689 9.92777 84.0727C10.0412 83.8703 10.0995 83.6496 10.0995 83.4104ZM6.0523 78.4067V80.9699H8.56645C8.79333 80.9699 8.99876 80.9177 9.17965 80.8104C9.35748 80.697 9.50159 80.5468 9.6089 80.3567C9.71314 80.1604 9.76833 79.9397 9.76833 79.6944C9.76833 79.443 9.71928 79.2222 9.62116 79.0321C9.52305 78.8359 9.38814 78.6857 9.21645 78.5784C9.05088 78.4649 8.86079 78.4067 8.64003 78.4067H6.0523Z" fill="white"/>
<path d="M12.707 83.422V79.5098H14.0561V83.1522C14.0561 83.7256 14.1573 84.1579 14.3627 84.4522C14.5742 84.7404 14.8778 84.8815 15.2702 84.8815C15.5217 84.8815 15.7669 84.8293 16.0061 84.722C16.2514 84.6178 16.4721 84.4614 16.6684 84.256C16.8707 84.0444 17.0363 83.79 17.1589 83.4956V79.5098H18.508V84.3909C18.508 84.5473 18.5356 84.6576 18.5938 84.722C18.649 84.7895 18.7441 84.8263 18.8759 84.8324V85.9117C18.7349 85.9362 18.6214 85.9515 18.5325 85.9607C18.4405 85.9668 18.3547 85.973 18.275 85.973C18.0297 85.973 17.8242 85.9086 17.6617 85.7767C17.4962 85.6388 17.4042 85.464 17.3797 85.2494L17.3551 84.6117C17.0669 85.0777 16.6959 85.4334 16.2391 85.6786C15.7792 85.9147 15.2825 86.0343 14.7429 86.0343C14.0714 86.0343 13.5655 85.8135 13.2221 85.372C12.8787 84.9305 12.707 84.2805 12.707 83.422Z" fill="white"/>
<path d="M20.2227 85.9118V79.5099H21.5717V85.9118H20.2227ZM20.2227 78.4552V76.9712H21.5717V78.4552H20.2227Z" fill="white"/>
<path d="M23.1992 76.9722H24.5483V84.0608C24.5483 84.3889 24.5973 84.5974 24.6954 84.6863C24.7936 84.7783 24.9162 84.8212 25.0634 84.8212C25.2259 84.8212 25.3761 84.8059 25.5171 84.7722C25.6551 84.7415 25.7778 84.6986 25.8851 84.6495L26.0813 85.7165C25.8851 85.7993 25.652 85.8698 25.3822 85.925C25.1186 85.9802 24.8825 86.0108 24.6709 86.0108C24.211 86.0108 23.8523 85.8851 23.5917 85.6307C23.328 85.37 23.1992 85.0113 23.1992 84.5514V76.9722Z" fill="white"/>
<path d="M30.4262 85.5813C30.3097 85.6396 30.1686 85.7009 29.9969 85.7653C29.8252 85.8327 29.6321 85.8879 29.4205 85.937C29.2059 85.986 28.9852 86.0106 28.7583 86.0106C28.4793 86.0106 28.2217 85.9615 27.9856 85.8634C27.7465 85.7653 27.5564 85.612 27.4092 85.3973C27.2682 85.1766 27.2007 84.8945 27.2007 84.5511V80.553H26.3545V79.5106H27.2007V77.4011H28.5498V79.5106H29.9356V80.553H28.5498V84.1219C28.5651 84.3426 28.6356 84.5082 28.7583 84.6124C28.887 84.7198 29.0434 84.7719 29.2243 84.7719C29.4113 84.7719 29.5922 84.7412 29.7639 84.6738C29.9356 84.6094 30.0613 84.5573 30.1441 84.5143L30.4262 85.5813Z" fill="white"/>
<path d="M37.2555 86.0346C36.7558 86.0346 36.3051 85.9487 35.9065 85.777C35.5048 85.5992 35.1584 85.3539 34.864 85.0412C34.5758 84.7315 34.3551 84.3789 34.2018 83.9865C34.0454 83.5879 33.9688 83.1648 33.9688 82.7232C33.9688 82.2756 34.0454 81.8494 34.2018 81.4478C34.3551 81.0492 34.5758 80.6966 34.864 80.3931C35.1584 80.0834 35.5048 79.8412 35.9065 79.6695C36.3143 79.4916 36.765 79.3997 37.2555 79.3997C37.7522 79.3997 38.2029 79.4916 38.6046 79.6695C39.0124 79.8412 39.3588 80.0834 39.6471 80.3931C39.9414 80.6966 40.1652 81.0492 40.3216 81.4478C40.4749 81.8494 40.5546 82.2756 40.5546 82.7232C40.5546 83.1648 40.4749 83.5879 40.3216 83.9865C40.1652 84.3789 39.9414 84.7315 39.6471 85.0412C39.3588 85.3539 39.0124 85.5992 38.6046 85.777C38.2029 85.9487 37.7522 86.0346 37.2555 86.0346ZM35.3546 82.7355C35.3546 83.1372 35.4404 83.502 35.6121 83.827C35.7838 84.1551 36.0077 84.4126 36.2867 84.5997C36.5718 84.7898 36.8937 84.8817 37.2555 84.8817C37.6051 84.8817 37.9239 84.7898 38.2121 84.5997C38.5065 84.4034 38.7395 84.1428 38.9112 83.8148C39.0829 83.4806 39.1687 83.1157 39.1687 82.7232C39.1687 82.3155 39.0829 81.9475 38.9112 81.6195C38.7395 81.2945 38.5065 81.0369 38.2121 80.8468C37.9239 80.6506 37.6051 80.5525 37.2555 80.5525C36.8937 80.5525 36.5718 80.6506 36.2867 80.8468C36.0077 81.0431 35.7838 81.3067 35.6121 81.6317C35.4404 81.9506 35.3546 82.3185 35.3546 82.7355Z" fill="white"/>
<path d="M47.4935 85.9117H46.1445V82.3305C46.1445 81.7357 46.0464 81.2973 45.8501 81.0183C45.66 80.7423 45.378 80.6013 45.0039 80.6013C44.7402 80.6013 44.4827 80.6688 44.2313 80.7975C43.9768 80.9294 43.7468 81.1103 43.5445 81.3371C43.339 81.5579 43.1919 81.8155 43.103 82.1098V85.9117H41.7539V79.5098H42.9803V80.7975C43.1428 80.5124 43.3544 80.2671 43.6181 80.0617C43.8787 79.8501 44.1761 79.6876 44.5133 79.5711C44.8475 79.4577 45.2032 79.3994 45.5803 79.3994C45.9636 79.3994 46.2794 79.4699 46.5247 79.6079C46.7761 79.7489 46.9723 79.939 47.1133 80.1843C47.2605 80.4235 47.3586 80.6994 47.4077 81.0183C47.4629 81.331 47.4935 81.6622 47.4935 82.0117V85.9117Z" fill="white"/>
<path d="M58.6355 78.4307H55.7411V85.9118H54.3553V78.4307H51.4609V77.2166H58.6355V78.4307Z" fill="white"/>
<path d="M63.2184 80.6761C62.6941 80.6853 62.2311 80.8049 61.8325 81.0318C61.4309 81.2617 61.1458 81.5837 60.9741 82.0007V85.9129H59.625V79.511H60.8759V80.9459C61.0967 80.5044 61.3818 80.1549 61.7344 79.8912C62.0932 79.6214 62.4733 79.4742 62.875 79.4497C62.9547 79.4497 63.0222 79.4497 63.0712 79.4497C63.1264 79.4497 63.1755 79.4558 63.2184 79.462V80.6761Z" fill="white"/>
<path d="M64.1436 83.422V79.5098H65.4926V83.1522C65.4926 83.7256 65.5938 84.1579 65.7992 84.4522C66.0108 84.7404 66.3143 84.8815 66.7068 84.8815C66.9582 84.8815 67.2035 84.8293 67.4426 84.722C67.6879 84.6178 67.9086 84.4614 68.1049 84.256C68.3072 84.0444 68.4728 83.79 68.5954 83.4956V79.5098H69.9445V84.3909C69.9445 84.5473 69.9721 84.6576 70.0303 84.722C70.0855 84.7895 70.1806 84.8263 70.3124 84.8324V85.9117C70.1714 85.9362 70.0579 85.9515 69.969 85.9607C69.877 85.9668 69.7912 85.973 69.7115 85.973C69.4662 85.973 69.2608 85.9086 69.0983 85.7767C68.9327 85.6388 68.8407 85.464 68.8162 85.2494L68.7917 84.6117C68.5035 85.0777 68.1325 85.4334 67.6756 85.6786C67.2157 85.9147 66.719 86.0343 66.1794 86.0343C65.5079 86.0343 65.002 85.8135 64.6586 85.372C64.3153 84.9305 64.1436 84.2805 64.1436 83.422Z" fill="white"/>
<path d="M73.9284 86.0343C73.3949 86.0343 72.889 85.9485 72.4076 85.7768C71.9232 85.5989 71.5123 85.3322 71.1689 84.9796L71.6718 84.0721C72.0397 84.4001 72.4076 84.6362 72.7755 84.7834C73.1496 84.9305 73.5237 85.0041 73.8916 85.0041C74.2595 85.0041 74.56 84.9367 74.7991 84.7956C75.0352 84.6485 75.1548 84.4369 75.1548 84.1579C75.1548 83.9555 75.0935 83.8022 74.9708 83.7041C74.8482 83.606 74.6673 83.5202 74.4312 83.4466C74.2013 83.373 73.9284 83.2933 73.6095 83.2013C73.1496 83.0633 72.7664 82.9192 72.4567 82.7721C72.1439 82.6249 71.9109 82.4409 71.7576 82.2202C71.6013 81.9994 71.5246 81.7173 71.5246 81.3739C71.5246 80.957 71.6289 80.6013 71.8435 80.307C72.055 80.0126 72.3494 79.7888 72.7265 79.6324C73.1097 79.4791 73.5482 79.3994 74.0388 79.3994C74.5048 79.3994 74.934 79.473 75.3265 79.6202C75.7251 79.7612 76.0777 79.982 76.3812 80.2824L75.8048 81.1777C75.5166 80.9171 75.2222 80.7239 74.9218 80.6013C74.6274 80.4787 74.3086 80.4173 73.9652 80.4173C73.7751 80.4173 73.5911 80.4419 73.4133 80.4909C73.2324 80.5338 73.0822 80.6136 72.9595 80.7362C72.843 80.8527 72.7878 81.0152 72.7878 81.2268C72.7878 81.3985 72.8369 81.5395 72.935 81.6438C73.0331 81.7511 73.1803 81.84 73.3765 81.9136C73.5727 81.9871 73.8088 82.0699 74.0878 82.1588C74.5845 82.306 75.0107 82.4532 75.3633 82.6004C75.7128 82.7414 75.9826 82.9192 76.1727 83.14C76.3689 83.3607 76.4671 83.6673 76.4671 84.0598C76.4671 84.6822 76.234 85.1697 75.768 85.5192C75.3081 85.8626 74.6949 86.0343 73.9284 86.0343Z" fill="white"/>
<path d="M81.226 85.5808C81.1095 85.6391 80.9684 85.7004 80.7967 85.7648C80.6251 85.8322 80.4319 85.8874 80.2203 85.9365C80.0057 85.9855 79.785 86.0101 79.5581 86.0101C79.2791 86.0101 79.0215 85.961 78.7854 85.8629C78.5463 85.7648 78.3562 85.6115 78.209 85.3969C78.068 85.1761 78.0005 84.894 78.0005 84.5506V80.5525H77.1543V79.5101H78.0005V77.4006H79.3496V79.5101H80.7354V80.5525H79.3496V84.1214C79.3649 84.3421 79.4354 84.5077 79.5581 84.612C79.6868 84.7193 79.8432 84.7714 80.0241 84.7714C80.2111 84.7714 80.392 84.7407 80.5637 84.6733C80.7354 84.6089 80.8611 84.5568 80.9439 84.5138L81.226 85.5808Z" fill="white"/>
</svg>
